<svg width="312" height="900" viewBox="0 0 312 900" fill="none" xmlns="http://www.w3.org/2000/svg">
<g filter="url('#filter0_d_142_62')">
<ellipse cx="155.996" cy="134.5" rx="151" ry="133.5" fill="#D9D9D9"></ellipse>
<path d="M155.996 268.5C239.608 268.5 307.496 208.562 307.496 134.5C307.496 60.4377 239.608 0.5 155.996 0.5C72.3846 0.5 4.49609 60.4377 4.49609 134.5C4.49609 208.562 72.3846 268.5 155.996 268.5Z" stroke="#FFD700"></path>
</g>
<g filter="url('#filter1_d_142_62')">
<ellipse cx="155.996" cy="445.5" rx="151" ry="133.5" fill="#D9D9D9"></ellipse>
<path d="M155.996 579.5C239.608 579.5 307.496 519.562 307.496 445.5C307.496 371.438 239.608 311.5 155.996 311.5C72.3846 311.5 4.49609 371.438 4.49609 445.5C4.49609 519.562 72.3846 579.5 155.996 579.5Z" stroke="#FFD700"></path>
</g>
<g filter="url('#filter2_d_142_62')">
<ellipse cx="155.996" cy="757.5" rx="151" ry="133.5" fill="#D9D9D9"></ellipse>
<path d="M155.996 891.5C239.608 891.5 307.496 831.562 307.496 757.5C307.496 683.438 239.608 623.5 155.996 623.5C72.3846 623.5 4.49609 683.438 4.49609 757.5C4.49609 831.562 72.3846 891.5 155.996 891.5Z" stroke="#FFD700"></path>
</g>
<defs>
<filter id="filter0_d_142_62" x="-0.00390625" y="0" width="312" height="277" filterUnits="userSpaceOnUse" color-interpolation-filters="sRGB">
<feFlood flood-opacity="0" result="BackgroundImageFix"></feFlood>
<feColorMatrix in="SourceAlpha" type="matrix" values="0 0 0 0 0 0 0 0 0 0 0 0 0 0 0 0 0 0 127 0" result="hardAlpha"></feColorMatrix>
<feOffset dy="4"></feOffset>
<feGaussianBlur stdDeviation="2"></feGaussianBlur>
<feComposite in2="hardAlpha" operator="out"></feComposite>
<feColorMatrix type="matrix" values="0 0 0 0 0 0 0 0 0 0 0 0 0 0 0 0 0 0 0.25 0"></feColorMatrix>
<feBlend mode="normal" in2="BackgroundImageFix" result="effect1_dropShadow_142_62"></feBlend>
<feBlend mode="normal" in="SourceGraphic" in2="effect1_dropShadow_142_62" result="shape"></feBlend>
</filter>
<filter id="filter1_d_142_62" x="-0.00390625" y="311" width="312" height="277" filterUnits="userSpaceOnUse" color-interpolation-filters="sRGB">
<feFlood flood-opacity="0" result="BackgroundImageFix"></feFlood>
<feColorMatrix in="SourceAlpha" type="matrix" values="0 0 0 0 0 0 0 0 0 0 0 0 0 0 0 0 0 0 127 0" result="hardAlpha"></feColorMatrix>
<feOffset dy="4"></feOffset>
<feGaussianBlur stdDeviation="2"></feGaussianBlur>
<feComposite in2="hardAlpha" operator="out"></feComposite>
<feColorMatrix type="matrix" values="0 0 0 0 0 0 0 0 0 0 0 0 0 0 0 0 0 0 0.25 0"></feColorMatrix>
<feBlend mode="normal" in2="BackgroundImageFix" result="effect1_dropShadow_142_62"></feBlend>
<feBlend mode="normal" in="SourceGraphic" in2="effect1_dropShadow_142_62" result="shape"></feBlend>
</filter>
<filter id="filter2_d_142_62" x="-0.00390625" y="623" width="312" height="277" filterUnits="userSpaceOnUse" color-interpolation-filters="sRGB">
<feFlood flood-opacity="0" result="BackgroundImageFix"></feFlood>
<feColorMatrix in="SourceAlpha" type="matrix" values="0 0 0 0 0 0 0 0 0 0 0 0 0 0 0 0 0 0 127 0" result="hardAlpha"></feColorMatrix>
<feOffset dy="4"></feOffset>
<feGaussianBlur stdDeviation="2"></feGaussianBlur>
<feComposite in2="hardAlpha" operator="out"></feComposite>
<feColorMatrix type="matrix" values="0 0 0 0 0 0 0 0 0 0 0 0 0 0 0 0 0 0 0.25 0"></feColorMatrix>
<feBlend mode="normal" in2="BackgroundImageFix" result="effect1_dropShadow_142_62"></feBlend>
<feBlend mode="normal" in="SourceGraphic" in2="effect1_dropShadow_142_62" result="shape"></feBlend>
</filter>
</defs>
</svg>
