<svg width="314" height="900" viewBox="0 0 314 900" fill="none" xmlns="http://www.w3.org/2000/svg">
<g filter="url('#filter0_d_142_69')">
<ellipse cx="156.71" cy="134.5" rx="151.331" ry="133.5" fill="#D9D9D9"></ellipse>
<path d="M156.71 268.5C240.504 268.5 308.541 208.563 308.541 134.5C308.541 60.4368 240.504 0.5 156.71 0.5C72.9168 0.5 4.87891 60.4368 4.87891 134.5C4.87891 208.563 72.9168 268.5 156.71 268.5Z" stroke="#FFD700"></path>
</g>
<g filter="url('#filter1_d_142_69')">
<ellipse cx="156.71" cy="445.5" rx="151.331" ry="133.5" fill="#D9D9D9"></ellipse>
<path d="M156.71 579.5C240.504 579.5 308.541 519.563 308.541 445.5C308.541 371.437 240.504 311.5 156.71 311.5C72.9168 311.5 4.87891 371.437 4.87891 445.5C4.87891 519.563 72.9168 579.5 156.71 579.5Z" stroke="#FFD700"></path>
</g>
<g filter="url('#filter2_d_142_69')">
<ellipse cx="156.71" cy="757.5" rx="151.331" ry="133.5" fill="#D9D9D9"></ellipse>
<path d="M156.71 891.5C240.504 891.5 308.541 831.563 308.541 757.5C308.541 683.437 240.504 623.5 156.71 623.5C72.9168 623.5 4.87891 683.437 4.87891 757.5C4.87891 831.563 72.9168 891.5 156.71 891.5Z" stroke="#FFD700"></path>
</g>
<defs>
<filter id="filter0_d_142_69" x="0.378906" y="0" width="312.664" height="277" filterUnits="userSpaceOnUse" color-interpolation-filters="sRGB">
<feFlood flood-opacity="0" result="BackgroundImageFix"></feFlood>
<feColorMatrix in="SourceAlpha" type="matrix" values="0 0 0 0 0 0 0 0 0 0 0 0 0 0 0 0 0 0 127 0" result="hardAlpha"></feColorMatrix>
<feOffset dy="4"></feOffset>
<feGaussianBlur stdDeviation="2"></feGaussianBlur>
<feComposite in2="hardAlpha" operator="out"></feComposite>
<feColorMatrix type="matrix" values="0 0 0 0 0 0 0 0 0 0 0 0 0 0 0 0 0 0 0.25 0"></feColorMatrix>
<feBlend mode="normal" in2="BackgroundImageFix" result="effect1_dropShadow_142_69"></feBlend>
<feBlend mode="normal" in="SourceGraphic" in2="effect1_dropShadow_142_69" result="shape"></feBlend>
</filter>
<filter id="filter1_d_142_69" x="0.378906" y="311" width="312.664" height="277" filterUnits="userSpaceOnUse" color-interpolation-filters="sRGB">
<feFlood flood-opacity="0" result="BackgroundImageFix"></feFlood>
<feColorMatrix in="SourceAlpha" type="matrix" values="0 0 0 0 0 0 0 0 0 0 0 0 0 0 0 0 0 0 127 0" result="hardAlpha"></feColorMatrix>
<feOffset dy="4"></feOffset>
<feGaussianBlur stdDeviation="2"></feGaussianBlur>
<feComposite in2="hardAlpha" operator="out"></feComposite>
<feColorMatrix type="matrix" values="0 0 0 0 0 0 0 0 0 0 0 0 0 0 0 0 0 0 0.25 0"></feColorMatrix>
<feBlend mode="normal" in2="BackgroundImageFix" result="effect1_dropShadow_142_69"></feBlend>
<feBlend mode="normal" in="SourceGraphic" in2="effect1_dropShadow_142_69" result="shape"></feBlend>
</filter>
<filter id="filter2_d_142_69" x="0.378906" y="623" width="312.664" height="277" filterUnits="userSpaceOnUse" color-interpolation-filters="sRGB">
<feFlood flood-opacity="0" result="BackgroundImageFix"></feFlood>
<feColorMatrix in="SourceAlpha" type="matrix" values="0 0 0 0 0 0 0 0 0 0 0 0 0 0 0 0 0 0 127 0" result="hardAlpha"></feColorMatrix>
<feOffset dy="4"></feOffset>
<feGaussianBlur stdDeviation="2"></feGaussianBlur>
<feComposite in2="hardAlpha" operator="out"></feComposite>
<feColorMatrix type="matrix" values="0 0 0 0 0 0 0 0 0 0 0 0 0 0 0 0 0 0 0.25 0"></feColorMatrix>
<feBlend mode="normal" in2="BackgroundImageFix" result="effect1_dropShadow_142_69"></feBlend>
<feBlend mode="normal" in="SourceGraphic" in2="effect1_dropShadow_142_69" result="shape"></feBlend>
</filter>
</defs>
</svg>
