<svg width="22" height="18" viewBox="0 0 22 18" fill="none" xmlns="http://www.w3.org/2000/svg">
<path d="M21.135 2.65593C20.3716 2.99362 19.562 3.2154 18.733 3.31393C19.6067 2.79136 20.2607 1.96894 20.573 0.999931C19.753 1.48793 18.854 1.82993 17.917 2.01493C17.2876 1.34151 16.4534 0.894891 15.544 0.744511C14.6345 0.594131 13.7009 0.748422 12.8883 1.18338C12.0756 1.61834 11.4294 2.30961 11.0501 3.14972C10.6708 3.98983 10.5797 4.93171 10.791 5.82893C9.12805 5.74558 7.50128 5.31345 6.01623 4.56059C4.53119 3.80773 3.22107 2.75097 2.17095 1.45893C1.79924 2.09738 1.6039 2.82315 1.60495 3.56193C1.60495 5.01193 2.34295 6.29293 3.46495 7.0429C2.80096 7.022 2.15158 6.84271 1.57095 6.51993V6.57193C1.57115 7.5376 1.90532 8.4735 2.51679 9.221C3.12827 9.9684 3.97943 10.4814 4.92595 10.6729C4.30956 10.84 3.66325 10.8646 3.03595 10.7449C3.30281 11.5762 3.82295 12.3031 4.52354 12.824C5.22412 13.3449 6.07008 13.6337 6.94295 13.6499C6.07543 14.3313 5.08212 14.8349 4.01983 15.1321C2.95753 15.4293 1.84707 15.5142 0.751953 15.3819C2.66364 16.6114 4.88904 17.264 7.16195 17.2619C14.855 17.2619 19.062 10.8889 19.062 5.36193C19.062 5.18193 19.057 4.99993 19.049 4.82193C19.8679 4.23009 20.5746 3.49695 21.136 2.65693L21.135 2.65593Z" fill="#201A2D"></path>
</svg>
