<svg width="312" height="901" viewBox="0 0 312 901" fill="none" xmlns="http://www.w3.org/2000/svg">
<g filter="url(#filter0_d_142_58)">
<ellipse cx="155.996" cy="134.5" rx="151" ry="133.5" fill="#D9D9D9"/>
<path d="M155.996 268.5C239.608 268.5 307.496 208.562 307.496 134.5C307.496 60.4377 239.608 0.5 155.996 0.5C72.3846 0.5 4.49609 60.4377 4.49609 134.5C4.49609 208.562 72.3846 268.5 155.996 268.5Z" stroke="#FFD700"/>
</g>
<g filter="url(#filter1_d_142_58)">
<ellipse cx="155.996" cy="446.5" rx="151" ry="133.5" fill="#D9D9D9"/>
<path d="M155.996 580.5C239.608 580.5 307.496 520.562 307.496 446.5C307.496 372.438 239.608 312.5 155.996 312.5C72.3846 312.5 4.49609 372.438 4.49609 446.5C4.49609 520.562 72.3846 580.5 155.996 580.5Z" stroke="#FFD700"/>
</g>
<g filter="url(#filter2_d_142_58)">
<ellipse cx="155.996" cy="758.5" rx="151" ry="133.5" fill="#D9D9D9"/>
<path d="M155.996 892.5C239.608 892.5 307.496 832.562 307.496 758.5C307.496 684.438 239.608 624.5 155.996 624.5C72.3846 624.5 4.49609 684.438 4.49609 758.5C4.49609 832.562 72.3846 892.5 155.996 892.5Z" stroke="#FFD700"/>
</g>
<defs>
<filter id="filter0_d_142_58" x="-0.00390625" y="0" width="312" height="277" filterUnits="userSpaceOnUse" color-interpolation-filters="sRGB">
<feFlood flood-opacity="0" result="BackgroundImageFix"/>
<feColorMatrix in="SourceAlpha" type="matrix" values="0 0 0 0 0 0 0 0 0 0 0 0 0 0 0 0 0 0 127 0" result="hardAlpha"/>
<feOffset dy="4"/>
<feGaussianBlur stdDeviation="2"/>
<feComposite in2="hardAlpha" operator="out"/>
<feColorMatrix type="matrix" values="0 0 0 0 0 0 0 0 0 0 0 0 0 0 0 0 0 0 0.25 0"/>
<feBlend mode="normal" in2="BackgroundImageFix" result="effect1_dropShadow_142_58"/>
<feBlend mode="normal" in="SourceGraphic" in2="effect1_dropShadow_142_58" result="shape"/>
</filter>
<filter id="filter1_d_142_58" x="-0.00390625" y="312" width="312" height="277" filterUnits="userSpaceOnUse" color-interpolation-filters="sRGB">
<feFlood flood-opacity="0" result="BackgroundImageFix"/>
<feColorMatrix in="SourceAlpha" type="matrix" values="0 0 0 0 0 0 0 0 0 0 0 0 0 0 0 0 0 0 127 0" result="hardAlpha"/>
<feOffset dy="4"/>
<feGaussianBlur stdDeviation="2"/>
<feComposite in2="hardAlpha" operator="out"/>
<feColorMatrix type="matrix" values="0 0 0 0 0 0 0 0 0 0 0 0 0 0 0 0 0 0 0.25 0"/>
<feBlend mode="normal" in2="BackgroundImageFix" result="effect1_dropShadow_142_58"/>
<feBlend mode="normal" in="SourceGraphic" in2="effect1_dropShadow_142_58" result="shape"/>
</filter>
<filter id="filter2_d_142_58" x="-0.00390625" y="624" width="312" height="277" filterUnits="userSpaceOnUse" color-interpolation-filters="sRGB">
<feFlood flood-opacity="0" result="BackgroundImageFix"/>
<feColorMatrix in="SourceAlpha" type="matrix" values="0 0 0 0 0 0 0 0 0 0 0 0 0 0 0 0 0 0 127 0" result="hardAlpha"/>
<feOffset dy="4"/>
<feGaussianBlur stdDeviation="2"/>
<feComposite in2="hardAlpha" operator="out"/>
<feColorMatrix type="matrix" values="0 0 0 0 0 0 0 0 0 0 0 0 0 0 0 0 0 0 0.25 0"/>
<feBlend mode="normal" in2="BackgroundImageFix" result="effect1_dropShadow_142_58"/>
<feBlend mode="normal" in="SourceGraphic" in2="effect1_dropShadow_142_58" result="shape"/>
</filter>
</defs>
</svg>
