<svg width="20" height="18" viewBox="0 0 20 18" fill="none" xmlns="http://www.w3.org/2000/svg">
<path d="M4.91406 2.00002C4.91379 2.53046 4.70283 3.03906 4.32757 3.41394C3.95231 3.78883 3.44349 3.99929 2.91306 3.99902C2.38263 3.99876 1.87402 3.78779 1.49914 3.41253C1.12425 3.03727 0.913793 2.52846 0.914063 1.99802C0.914333 1.46759 1.12529 0.958994 1.50055 0.584104C1.87581 0.209224 2.38463 -0.00123632 2.91506 -0.000976322C3.44549 -0.000706322 3.9541 0.210264 4.32898 0.585524C4.70387 0.960784 4.91433 1.46959 4.91406 2.00002ZM4.97406 5.48002H0.974063V18H4.97406V5.48002ZM11.294 5.48002H7.31406V18H11.254V11.43C11.254 7.77 16.024 7.43 16.024 11.43V18H19.974V10.07C19.974 3.90002 12.914 4.13002 11.254 7.16L11.294 5.48002Z" fill="#201A2D"/>
</svg>
