<svg width="20" height="18" viewBox="0 0 20 18" fill="none" xmlns="http://www.w3.org/2000/svg">
<path d="M4.91309 2.00002C4.91282 2.53046 4.70186 3.03906 4.3266 3.41394C3.95134 3.78883 3.44252 3.99929 2.91209 3.99902C2.38166 3.99876 1.87305 3.78779 1.49817 3.41253C1.12328 3.03727 0.912816 2.52846 0.913086 1.99802C0.913356 1.46759 1.12432 0.958994 1.49958 0.584104C1.87484 0.209224 2.38366 -0.00123632 2.91409 -0.000976322C3.44452 -0.000706322 3.95313 0.210264 4.32801 0.585524C4.7029 0.960784 4.91336 1.46959 4.91309 2.00002ZM4.97309 5.48002H0.973086V18H4.97309V5.48002ZM11.2931 5.48002H7.31309V18H11.2531V11.43C11.2531 7.77 16.0231 7.43 16.0231 11.43V18H19.9731V10.07C19.9731 3.90002 12.9131 4.13002 11.2531 7.16L11.2931 5.48002Z" fill="#201A2D"/>
</svg>
